{
  "source": "C:\\Users\\Peter\\Desktop\\stuff\\MIUN\\quantitative_research\\video_compression\\videos\\BVI-HD\\BVI-HD_CDVL_videos\\ORIG\\Lightreef_1920x1080_30fps.mp4",
  "output": "C:\\Users\\Peter\\Desktop\\stuff\\MIUN\\quantitative_research\\video_compression\\compressed_videos\\BVI-HD\\h264\\8\\Lightreef_1920x1080_30fps_h264.mp4",
  "codec": "h264",
  "ok": "Input #0, mov,mp4,m4a,3gp,3g2,mj2, from 'C:\\Users\\Peter\\Desktop\\stuff\\MIUN\\quantitative_research\\video_compression\\videos\\BVI-HD\\BVI-HD_CDVL_videos\\ORIG\\Lightreef_1920x1080_30fps.mp4':\n  Metadata:\n    major_brand     : isom\n    minor_version   : 512\n    compatible_brands: isomiso2avc1mp41\n    encoder         : Lavf54.28.101\n  Duration: 00:00:05.00, start: 0.000000, bitrate: 361719 kb/s\n  Stream #0:0[0x1](und): Video: h264 (High 4:4:4 Predictive) (avc1 / 0x31637661), yuv420p(progressive), 1920x1080, 361715 kb/s, 30 fps, 30 tbr, 30 tbn (default)\n    Metadata:\n      handler_name    : VideoHandler\n      vendor_id       : [0][0][0][0]\n[out#0/mp4 @ 0000022b99aaf200] Codec AVOption b:a (set bitrate (in bits/s)) has not been used for any stream. The most likely reason is either wrong type (e.g. a video option with no video streams) or that it is a private option of some decoder which was not actually used for any stream.\nStream mapping:\n  Stream #0:0 -> #0:0 (h264 (native) -> h264 (libx264))\nPress [q] to stop, [?] for help\n[libx264 @ 0000022b998b0c00] using cpu capabilities: MMX2 SSE2Fast SSSE3 SSE4.2 AVX FMA3 BMI2 AVX2\n[libx264 @ 0000022b998b0c00] profile High, level 5.0, 4:2:0, 8-bit\n[libx264 @ 0000022b998b0c00] 264 - core 165 r3222 b35605a - H.264/MPEG-4 AVC codec - Copyleft 2003-2025 - http://www.videolan.org/x264.html - options: cabac=1 ref=5 deblock=1:0:0 analyse=0x3:0x113 me=hex subme=8 psy=1 psy_rd=1.00:0.00 mixed_ref=1 me_range=16 chroma_me=1 trellis=2 8x8dct=1 cqm=0 deadzone=21,11 fast_pskip=1 chroma_qp_offset=-2 threads=18 lookahead_threads=3 sliced_threads=0 nr=0 decimate=1 interlaced=0 bluray_compat=0 constrained_intra=0 bframes=3 b_pyramid=2 b_adapt=1 b_bias=0 direct=3 weightb=1 open_gop=0 weightp=2 keyint=250 keyint_min=25 scenecut=40 intra_refresh=0 rc_lookahead=50 rc=cbr mbtree=1 bitrate=8000 ratetol=1.0 qcomp=0.60 qpmin=0 qpmax=69 qpstep=4 vbv_maxrate=8000 vbv_bufsize=8000 nal_hrd=none filler=0 ip_ratio=1.40 aq=1:1.00\nOutput #0, mp4, to 'C:\\Users\\Peter\\Desktop\\stuff\\MIUN\\quantitative_research\\video_compression\\compressed_videos\\BVI-HD\\h264\\8\\Lightreef_1920x1080_30fps_h264.mp4':\n  Metadata:\n    major_brand     : isom\n    minor_version   : 512\n    compatible_brands: isomiso2avc1mp41\n    encoder         : Lavf62.3.100\n  Stream #0:0(und): Video: h264 (avc1 / 0x31637661), yuv420p(tv, progressive), 1920x1080, q=2-31, 8000 kb/s, 30 fps, 15360 tbn (default)\n    Metadata:\n      encoder         : Lavc62.11.100 libx264\n      handler_name    : VideoHandler\n      vendor_id       : [0][0][0][0]\n    Side data:\n      cpb: bitrate max/min/avg: 8000000/0/8000000 buffer size: 8000000 vbv_delay: N/A\nframe=    0 fps=0.0 q=0.0 size=       0KiB time=N/A bitrate=N/A speed=N/A elapsed=0:00:00.51    \nframe=    0 fps=0.0 q=0.0 size=       0KiB time=N/A bitrate=N/A speed=N/A elapsed=0:00:01.05    \nframe=    0 fps=0.0 q=0.0 size=       0KiB time=N/A bitrate=N/A speed=N/A elapsed=0:00:01.61    \nframe=    9 fps=4.1 q=35.0 size=     256KiB time=00:00:00.23 bitrate=8989.5kbits/s speed=0.106x elapsed=0:00:02.20    \nframe=   28 fps= 10 q=34.0 size=     768KiB time=00:00:00.76 bitrate=8206.7kbits/s speed=0.279x elapsed=0:00:02.74    \nframe=   41 fps= 12 q=33.0 size=    1024KiB time=00:00:01.23 bitrate=6801.9kbits/s speed=0.373x elapsed=0:00:03.30    \nframe=   49 fps= 13 q=33.0 size=    1280KiB time=00:00:01.56 bitrate=6693.3kbits/s speed=0.407x elapsed=0:00:03.85    \nframe=   67 fps= 15 q=34.0 size=    1792KiB time=00:00:02.13 bitrate=6881.5kbits/s speed=0.487x elapsed=0:00:04.38    \nframe=   83 fps= 17 q=34.0 size=    2304KiB time=00:00:02.70 bitrate=6990.6kbits/s speed=0.551x elapsed=0:00:04.90    \nframe=  103 fps= 19 q=34.0 size=    3072KiB time=00:00:03.36 bitrate=7475.1kbits/s speed=0.621x elapsed=0:00:05.42    \nframe=  115 fps= 19 q=34.0 size=    3328KiB time=00:00:03.73 bitrate=7302.7kbits/s speed=0.629x elapsed=0:00:05.93    \nframe=  133 fps= 21 q=33.0 size=    4096KiB time=00:00:04.30 bitrate=7803.4kbits/s speed=0.665x elapsed=0:00:06.46    \n[mp4 @ 0000022b98d39a40] Starting second pass: moving the moov atom to the beginning of the file\n[out#0/mp4 @ 0000022b99aaf200] video:4536KiB audio:0KiB subtitle:0KiB other streams:0KiB global headers:0KiB muxing overhead: 0.058107%\nframe=  150 fps= 22 q=-1.0 Lsize=    4539KiB time=00:00:04.93 bitrate=7536.7kbits/s speed=0.727x elapsed=0:00:06.78    \n[libx264 @ 0000022b998b0c00] frame I:1     Avg QP:29.66  size:205420\n[libx264 @ 0000022b998b0c00] frame P:38    Avg QP:32.52  size: 77520\n[libx264 @ 0000022b998b0c00] frame B:111   Avg QP:36.30  size: 13450\n[libx264 @ 0000022b998b0c00] consecutive B-frames:  0.7%  0.0%  6.0% 93.3%\n[libx264 @ 0000022b998b0c00] mb I  I16..4:  4.3% 90.5%  5.2%\n[libx264 @ 0000022b998b0c00] mb P  I16..4:  0.7%  6.2%  0.2%  P16..4: 58.7% 18.5%  8.7%  0.0%  0.0%    skip: 6.8%\n[libx264 @ 0000022b998b0c00] mb B  I16..4:  0.0%  0.2%  0.0%  B16..8: 48.0%  3.7%  0.6%  direct: 3.6%  skip:43.9%  L0:41.4% L1:45.7% BI:12.8%\n[libx264 @ 0000022b998b0c00] 8x8 transform intra:87.3% inter:80.2%\n[libx264 @ 0000022b998b0c00] direct mvs  spatial:91.0% temporal:9.0%\n[libx264 @ 0000022b998b0c00] coded y,uvDC,uvAC intra: 78.9% 80.8% 45.1% inter: 21.5% 24.5% 1.2%\n[libx264 @ 0000022b998b0c00] i16 v,h,dc,p: 13% 27% 18% 42%\n[libx264 @ 0000022b998b0c00] i8 v,h,dc,ddl,ddr,vr,hd,vl,hu:  8%  7%  8%  9% 15% 10% 17%  9% 17%\n[libx264 @ 0000022b998b0c00] i4 v,h,dc,ddl,ddr,vr,hd,vl,hu:  7%  4%  5%  9% 15% 12% 19% 10% 19%\n[libx264 @ 0000022b998b0c00] i8c dc,h,v,p: 43% 25% 14% 18%\n[libx264 @ 0000022b998b0c00] Weighted P-Frames: Y:47.4% UV:26.3%\n[libx264 @ 0000022b998b0c00] ref P L0: 39.5% 17.7% 18.6% 10.8%  7.9%  5.5%\n[libx264 @ 0000022b998b0c00] ref B L0: 91.2%  6.5%  1.5%  0.8%\n[libx264 @ 0000022b998b0c00] ref B L1: 98.7%  1.3%\n[libx264 @ 0000022b998b0c00] kb/s:7430.65\n",
  "seconds": 7.119337558746338,
  "probe_out": {}
}